PathFileType	4	(X/Y/Z)	Patient4_TMGait_0pt6_02_right_27.trc.trc
DataRate	CameraRate	NumFrames	NumMarkers	Units	OrigDataRate	OrigDataStartFrame	OrigNumFrames
82.840236686390	82.840236686390	4	33	mm	82.840236686390	53	       141
Frame#	Time	Sacral			L.Shoulder			Chest			R.Shoulder			Neck			R.ASIS			L.ASIS			R.Thigh.Superior			R.Thigh.Lateral			R.Thigh.Inferior			R.Patella			L.Thigh.Superior			L.Thigh.Lateral			L.Thigh.Inferior			L.Patella			L.Shank.Superior			L.Shank.Lateral			L.Shank.Inferior			R.Shank.Superior			R.Shank.Lateral			R.Shank.Inferior			R.Heel			R.Midfoot.Superior			R.Midfoot.Lateral			R.Toe			L.Heel			L.Midfoot.Lateral			L.Midfoot.Superior			L.Toe			L.Elbow			L.Wrist			R.Elbow			R.Wrist			
		X1	Y1	Z1	X2	Y2	Z2	X3	Y3	Z3	X4	Y4	Z4	X5	Y5	Z5	X6	Y6	Z6	X7	Y7	Z7	X8	Y8	Z8	X9	Y9	Z9	X10	Y10	Z10	X11	Y11	Z11	X12	Y12	Z12	X13	Y13	Z13	X14	Y14	Z14	X15	Y15	Z15	X16	Y16	Z16	X17	Y17	Z17	X18	Y18	Z18	X19	Y19	Z19	X20	Y20	Z20	X21	Y21	Z21	X22	Y22	Z22	X23	Y23	Z23	X24	Y24	Z24	X25	Y25	Z25	X26	Y26	Z26	X27	Y27	Z27	X28	Y28	Z28	X29	Y29	Z29	X30	Y30	Z30	X31	Y31	Z31	X32	Y32	Z32	X33	Y33	Z33	

53	33.067714285714	860.154996477914	1021.370334920944	487.545593090770	1056.625234218572	1428.682049048444	284.305980300127	1170.517268619395	1350.558235953371	432.974016971528	1117.608325940852	1439.325024465822	611.013058997094	1082.237437556915	1491.934593575844	431.397339832893	1090.682801739935	939.868638418373	584.845634954375	1055.598598102176	965.128325977954	313.133204980118	1120.433876484367	737.625670644809	553.687552161720	1033.256666562872	633.559445989734	610.799015108188	1104.134320449043	579.810456642706	526.565782780848	1100.161300301696	493.293609817642	529.698304818324	1142.420242604346	794.092765322972	346.922331828141	1104.463390720155	666.206955639624	269.453535472673	1208.769511861259	606.654088887680	333.019760811995	1227.551877035654	519.967823948086	325.357558235610	1172.112693689528	448.204060650781	315.673841567923	1041.900363722779	380.376840186829	265.995873153201	1056.405932798812	250.146111812588	318.171302165631	1072.719534073157	405.916016921649	535.418784042808	1001.484454639825	300.296800822636	592.272529098552	1045.224255344209	207.704980898320	526.638411397453	912.277626514312	42.714528103745	487.427340281135	1082.127940593776	96.270303395334	528.866786542452	992.770705937003	37.127549574410	565.582449062595	1201.517068136971	41.629226367875	562.934805107160	883.828332848143	149.665761464886	354.618460801448	948.193138637562	114.797004053014	274.627827206715	1049.574791629409	142.583000655611	295.977938159165	1146.478492758346	46.632739991494	269.154720032336	937.672461370755	1086.851938854441	194.114985739388	946.175398384603	826.061003517050	188.083534084642	1184.148319302321	1122.474848719071	767.280405463685	1418.148386256241	1104.981045698414	674.188388999102	
54	33.079785714286	859.357867559596	1022.188546858553	488.416084946875	1056.210373233588	1428.847607367018	284.700721991969	1170.630745214963	1350.289401896438	432.715709160529	1119.013562968976	1439.308706256742	611.001950216269	1082.709642906940	1491.939073901275	431.659824742944	1089.794546818144	939.582337172672	584.687696024688	1054.029200120385	965.649682465503	313.088045951651	1117.121278821800	736.804485868397	552.890996822704	1029.351607099613	633.588081244850	610.905511499666	1099.060677524294	579.079560267154	526.348810438949	1094.269874769938	492.887543446817	529.668175716882	1141.482689119163	796.016576983198	347.282486393420	1104.805996845571	667.649109705344	269.834379870037	1208.895621129147	609.013854086072	334.287169378884	1229.496297493924	523.828961652530	326.491215532611	1177.653309034879	450.940562495286	316.161386639596	1052.031484954124	375.640098389252	265.934123376628	1074.492734123728	246.160121096769	317.825234590680	1066.565396478712	405.650391352073	535.402213125214	995.102127137907	300.308321920430	592.374231599359	1038.421835573264	207.563348075604	526.610920465247	904.985824052521	42.703943000092	487.466541828272	1074.948885600653	96.383788999971	529.138914437560	985.485249259764	37.123826812774	565.612675982340	1194.201987349441	41.560646887763	562.951230705284	908.745601976474	134.295926518293	354.081524246961	975.047997332150	104.756726231057	273.533337504152	1074.428085094896	138.820586627296	294.957340658278	1177.398558064670	49.810340132045	266.837225601694	932.253669952693	1088.374287984512	196.498652278882	937.171269283074	827.496074179995	191.358860006470	1192.035740698310	1123.671543747929	765.280641864254	1425.096437586617	1117.435759492435	669.381314314841	
55	33.091857142857	858.582130434924	1022.881866209842	489.154680177670	1055.765417685031	1428.987035670168	285.055532045221	1170.717601528636	1349.931614888987	432.375232031616	1120.376160895579	1439.122275995948	610.932065579769	1083.143053535330	1491.858721485207	431.906844305405	1088.938816479155	939.227480526022	584.380025065667	1052.523868322086	965.986581886979	312.874122180787	1113.886834420244	735.962004735918	552.081693804619	1025.530878153774	633.562931503261	610.970867709801	1094.136062095109	578.312716113861	526.142917120085	1088.541190181992	492.445656208998	529.659303551406	1140.220940049770	797.402767257433	347.490617676992	1104.591789248990	668.631002288223	270.036512226597	1208.254720115990	610.722137163758	335.503013421314	1230.611997066441	527.226624344740	327.575600812560	1182.477012170499	453.441467302072	316.658620028989	1062.171134931753	370.766337970670	265.622255888191	1092.478989476153	242.591698892241	317.548534571831	1060.540705092655	405.346294544005	535.375356964102	988.814950175935	300.303062718349	592.470785654788	1031.661931117517	207.393518420983	526.577866065399	897.704873056149	42.696241630759	487.518718911278	1067.784120812018	96.506352387275	529.433783462622	978.202735656773	37.114787837915	565.641471734301	1186.886688824864	41.477124780974	562.954083781297	934.299310274831	119.727978685409	353.254393475163	1002.504700395685	95.509268915045	272.505449263685	1099.350011179891	135.792160094828	294.283834572035	1208.037484705752	54.072303246240	265.539096697373	927.053529907055	1089.879637665138	198.844603064154	928.910074531989	828.946725300074	194.464993441909	1199.570929781026	1124.676164647983	762.999953598672	1431.236292228135	1129.196734884442	664.492266819200	
56	33.103928571429	857.834120198925	1023.441930255876	489.746119803328	1055.309439391165	1429.094128015169	285.357200745310	1170.775520725208	1349.490213862992	431.960310953348	1121.665007381996	1438.775723167524	610.798779308559	1083.537927994717	1491.694883077182	432.126779828315	1088.121309139175	938.827821786600	583.958071474647	1051.111146577134	966.129798697531	312.513116749628	1110.757658504934	735.107318572278	551.330313997441	1021.791043796843	633.483154359239	611.006239214820	1089.385146161760	577.512237949343	525.978765173202	1082.997128288740	491.963709414201	529.682182591109	1138.650746000047	798.236721492288	347.572538111082	1103.874336538176	669.163633503733	270.023983901288	1206.938665292774	611.794055464555	336.602342500873	1230.975224615728	530.154578184527	328.576310144610	1186.612243490446	455.705455175839	317.164726608346	1072.285615912865	365.897467297560	265.054402055067	1110.151697486859	239.579075395910	317.380061545265	1054.667757541162	405.003979889870	535.346954883980	982.624876902858	300.282382232443	592.563299206325	1024.947458659208	207.195956921099	526.544072060532	890.432105666662	42.689158488779	487.584560729508	1060.616857223056	96.618093975949	529.718820986064	970.921691787943	37.101178712147	565.670424459287	1179.572411488737	41.383110541439	562.948863381528	960.114884914267	106.310292934991	352.156261154307	1030.222583666036	87.276475149646	271.614044278713	1124.027096695233	133.627995991997	294.036267426063	1238.007269384075	59.426109756559	265.458022134267	922.135150651438	1091.340839282002	201.104495347461	921.408475825131	830.367679526366	197.374166154080	1206.731827193896	1125.482970286676	760.447936812702	1436.624902584924	1140.176592543844	659.544516303802	
